<svg id="Layer_1" enable-background="new 0 0 510 510" height="512" viewBox="0 0 510 510" width="512" xmlns="http://www.w3.org/2000/svg"><g><path d="m435.313 74.688c-48.164-48.164-112.2-74.688-180.313-74.688s-132.149 26.524-180.312 74.688c-48.164 48.163-74.688 112.199-74.688 180.312s26.524 132.149 74.688 180.312c48.163 48.164 112.199 74.688 180.312 74.688s132.149-26.524 180.313-74.688c48.163-48.163 74.687-112.199 74.687-180.312s-26.524-132.149-74.687-180.312zm-180.313 405.312c-124.065 0-225-100.935-225-225s100.935-225 225-225 225 100.935 225 225-100.935 225-225 225z"/><path d="m371.673 117.114-32.406 32.406c-52.817-42.361-130.399-39.306-179.726 10.02-49.227 49.227-52.457 126.815-10.021 179.726l-32.406 32.406 21.213 21.213 32.406-32.406c52.814 42.361 130.401 39.306 179.726-10.02 49.226-49.226 52.458-126.815 10.02-179.726l32.406-32.406zm-221.673 137.886c0-58.03 46.961-105 105-105 22.982 0 44.834 7.338 62.889 20.898l-146.99 146.99c-13.561-18.055-20.899-39.906-20.899-62.888zm179.246 74.246c-37.604 37.604-96.244 40.568-137.135 9.855l146.99-146.99c30.688 40.859 27.784 99.497-9.855 137.135z"/></g></svg>