<svg id="Layer_1" enable-background="new 0 0 510 510" height="512" viewBox="0 0 510 510" width="512" xmlns="http://www.w3.org/2000/svg"><g><path d="m405 60v-60h-360v450h60v60h360v-450zm-330-30h300v390h-300zm360 450h-300v-30h270v-360h30z"/><path d="m167.696 146.352-22.541-56.352h-40.155v30h19.845l37.459 93.648 56.189-93.648h126.507v-30h-143.493z"/><path d="m285.91 224.623 21.213-21.213-15.91-15.91 15.91-15.91-21.213-21.213-15.91 15.91-15.91-15.91-21.213 21.213 15.91 15.91-15.91 15.91 21.213 21.213 15.91-15.91z"/><path d="m105 270h75v30h-75z"/><path d="m105 330h75v30h-75z"/><path d="m270 270h75v30h-75z"/><path d="m270 330h75v30h-75z"/></g></svg>