<svg id="Layer_1" enable-background="new 0 0 510 510" height="512" viewBox="0 0 510 510" width="512" xmlns="http://www.w3.org/2000/svg"><g><path d="m0 0v510h510v-510zm240 240h-70.335l70.335-141.944zm0 30v105h-137.229l52.029-105zm30 0h85.201l52.028 105h-137.229zm0-30v-141.944l70.335 141.944zm-133.816 0h-105.672c7.418-112.133 97.344-202.063 209.475-209.487zm-14.865 30-53.993 108.963c-20.976-31.653-34.163-68.888-36.814-108.963zm118.681 135v74.488c-60.452-4-114.449-31.974-152.55-74.488zm30 0h152.55c-38.101 42.514-92.098 70.489-152.55 74.488zm172.674-26.037-53.992-108.963h90.807c-2.652 40.075-15.839 77.31-36.815 108.963zm-68.859-138.963-103.802-209.487c112.132 7.424 202.057 97.354 209.475 209.487zm-343.815-210h104.747c-44.16 23.675-81.028 60.507-104.747 104.747zm0 450v-104.747c23.675 44.16 60.507 81.028 104.747 104.747zm450 0h-104.747c44.161-23.676 81.028-60.507 104.747-104.747zm-104.747-450h104.747v104.747c-23.676-44.161-60.507-81.028-104.747-104.747z"/></g></svg>