<svg id="Layer_1" enable-background="new 0 0 509.213 509.213" height="512" viewBox="0 0 509.213 509.213" width="512" xmlns="http://www.w3.org/2000/svg"><g><path d="m420.894 366.181-21.213 21.213 16.819 16.82h-96.74c18.715-13.655 35.707-31.781 50.337-54.016 63.47-96.456 54.291-222.681 55.19-230.984h-180v-61.787l16.819 16.819 21.213-21.213-53.032-53.033-53.033 53.033 21.213 21.213 16.82-16.82v61.787h-180v15c0 86.426 19.084 161.112 55.19 215.984 32.351 49.165 76.232 78.282 124.81 83.251v75.766h30v-75h171.213l-16.819 16.82 21.213 21.213 53.032-53.033zm-25.821-216.968c-4.05 140.502-64.995 243.182-149.785 254.031v-59.031h30v-30h-30v-30h30v-30h-30v-30h30v-30h-30v-45zm-329.571 0h149.785v45h-30v30h30v30h-30v30h30v30h-30v30h30v59.031c-84.79-10.848-145.735-113.529-149.785-254.031z"/><path d="m99.681 430.574-15.91 15.91-15.91-15.91-21.213 21.213 15.91 15.91-15.91 15.91 21.213 21.213 15.91-15.91 15.91 15.91 21.213-21.213-15.91-15.91 15.91-15.91z"/><path d="m65.287 89.213h30v-38.787l25.607-25.606-21.213-21.213-19.394 19.393-19.393-19.393-21.213 21.213 25.606 25.606z"/></g></svg>