<svg id="Layer_1" enable-background="new 0 0 510 510" height="512" viewBox="0 0 510 510" width="512" xmlns="http://www.w3.org/2000/svg"><g><path d="m427.5 0h-345c-45.491 0-82.5 37.009-82.5 82.5v345c0 45.491 37.009 82.5 82.5 82.5h345c45.491 0 82.5-37.009 82.5-82.5v-345c0-45.491-37.009-82.5-82.5-82.5zm52.5 427.5c0 28.949-23.551 52.5-52.5 52.5h-345c-28.949 0-52.5-23.551-52.5-52.5v-345c0-28.949 23.551-52.5 52.5-52.5h345c28.949 0 52.5 23.551 52.5 52.5z"/><path d="m382.279 127.721c-70.343-70.344-184.205-70.354-254.558 0-62.176 62.176-69.269 158.895-21.279 228.952h-46.442v30h114.54l-25.606-25.607c-58.484-58.485-58.484-153.648 0-212.133 24.765-24.765 56.666-39.803 91.066-43.197v209.264h30v-209.264c74.69 7.368 134.999 70.374 134.999 149.264 0 40.066-15.602 77.735-43.934 106.066l-25.607 25.607h114.542v-30h-46.403c46.897-68.235 42.443-165.191-21.318-228.952z"/></g></svg>