<svg id="Layer_1" enable-background="new 0 0 509.213 509.213" height="512" viewBox="0 0 509.213 509.213" width="512" xmlns="http://www.w3.org/2000/svg"><g><path d="m456.18 396.18-21.213 21.213 16.82 16.82h-61.787v-315h-90v150h-30v-75h-90v105h-60v135h-45v-376.786l16.82 16.82 21.213-21.213-53.033-53.034-53.032 53.034 21.212 21.213 16.82-16.82v376.787h-45v30h45v45h30v-45h376.787l-16.82 16.82 21.213 21.213 53.033-53.033zm-306.18 38.033v-105h30v105zm60 0c0-6.034 0-205.053 0-210h30v210zm60 0v-135h30v135zm60 0c0-8.065 0-267.434 0-285h30v285z"/><path d="m127.862 191.988 191.383-117.775h70.755v-30h-79.246l-198.615 122.226z"/></g></svg>