<svg id="Layer_1" enable-background="new 0 0 510 510" height="512" viewBox="0 0 510 510" width="512" xmlns="http://www.w3.org/2000/svg"><g><path d="m435.313 74.688c-48.164-48.164-112.2-74.688-180.313-74.688s-132.149 26.524-180.312 74.688c-48.164 48.163-74.688 112.199-74.688 180.312s26.524 132.149 74.688 180.312c48.163 48.164 112.199 74.688 180.312 74.688s132.149-26.524 180.313-74.688c48.163-48.163 74.687-112.199 74.687-180.312s-26.524-132.149-74.687-180.312zm-180.313 405.312c-124.065 0-225-100.935-225-225s100.935-225 225-225 225 100.935 225 225-100.935 225-225 225z"/><path d="m165 135h45v-30h-75v300h75v-30h-45z"/><path d="m300 135h45v240h-45v30h75v-300h-75z"/><path d="m308.033 286.82-31.82-31.82 31.82-31.82-21.213-21.213-31.82 31.82-31.82-31.82-21.213 21.213 31.82 31.82-31.82 31.82 21.213 21.213 31.82-31.82 31.82 31.82z"/></g></svg>