<svg id="Layer_1" enable-background="new 0 0 510 510" height="512" viewBox="0 0 510 510" width="512" xmlns="http://www.w3.org/2000/svg"><g><path d="m135 67.5h-30v37.5h-37.5v30h37.5v37.5h30v-37.5h37.5v-30h-37.5z"/><path d="m337.5 105h105v30h-105z"/><path d="m337.5 375h105v30h-105z"/><path d="m167.729 363.483-21.212-21.212-26.517 26.516-26.517-26.516-21.212 21.212 26.516 26.517-26.516 26.517 21.212 21.212 26.517-26.516 26.517 26.516 21.212-21.212-26.516-26.517z"/><path d="m0 0v510h510c0-23.746 0-488.65 0-510-21.623 0-486.82 0-510 0zm30 30h180v180h-180zm0 450v-180h180v180zm210 0v-210h-210v-30h210v-210h30v210h210v30h-210v210zm240 0h-180v-180h180zm-180-270v-180h180v180z"/><path d="m375 420h30v30h-30z"/><path d="m375 330h30v30h-30z"/></g></svg>