<svg id="Layer_1" enable-background="new 0 0 510 510" height="512" viewBox="0 0 510 510" width="512" xmlns="http://www.w3.org/2000/svg"><g><path d="m435.313 74.688c-48.164-48.164-112.2-74.688-180.313-74.688s-132.149 26.524-180.312 74.688-74.688 112.199-74.688 180.312 26.524 132.149 74.688 180.313 112.199 74.687 180.312 74.687 132.149-26.524 180.313-74.688 74.687-112.199 74.687-180.312-26.524-132.149-74.687-180.312zm-180.313 405.312c-124.065 0-225-100.935-225-225s100.935-225 225-225 225 100.935 225 225-100.935 225-225 225z"/><path d="m223.23 255-52.5 105h159.27v-60h-30v30h-80.73l37.501-75-37.501-75h80.73v30h30v-60h-159.27z"/></g></svg>