<svg id="Layer_1" enable-background="new 0 0 510 510" height="512" viewBox="0 0 510 510" width="512" xmlns="http://www.w3.org/2000/svg"><g><path d="m510 434.465c0-9.692-3.09-18.67-8.323-26.023l-246.677-406.912-246.677 406.912c-5.233 7.353-8.323 16.331-8.323 26.023 0 19.896 12.983 36.805 30.917 42.73l-.026.063c100.684 41.582 347.377 41.648 448.218 0l-.026-.063c17.934-5.925 30.917-22.834 30.917-42.73zm-270-105v30.117c-72.602 1.088-138.161 10.047-181.961 24.721l181.961-300.158v95.32h30v-95.32l181.961 300.158c-43.8-14.674-109.359-23.633-181.961-24.721v-30.117zm-195 90c8.271 0 15 6.729 15 15 0 8.272-6.729 15-15 15s-15-6.728-15-15c0-8.271 6.729-15 15-15zm35.972 42.004c11.747-15.609 12.085-37.009.726-52.998 92.311-25.318 254.249-25.331 346.604 0-11.359 15.988-11.021 37.389.726 52.998-95.758 22.646-252.257 22.654-348.056 0zm384.028-12.004c-8.271 0-15-6.728-15-15 0-8.271 6.729-15 15-15s15 6.729 15 15c0 8.272-6.729 15-15 15z"/><path d="m240 209.465h30v30h-30z"/><path d="m240 269.465h30v30h-30z"/><path d="m240 419.465h30v30h-30z"/><path d="m436 146.711c0-5.018 9.502-42.246 45-42.246v-30c-18.794 0-33.641 6.314-45 15.422v-15.422h-30v105h30z"/><path d="m75 179.465c24.813 0 45-20.186 45-45s-20.187-45-45-45-45 20.187-45 45 20.187 45 45 45zm0-60c8.271 0 15 6.729 15 15s-6.729 15-15 15-15-6.729-15-15 6.729-15 15-15z"/></g></svg>