<svg id="Layer_1" enable-background="new 0 0 510 510" height="512" viewBox="0 0 510 510" width="512" xmlns="http://www.w3.org/2000/svg"><g><path d="m30 105h-30v30h30v60h-30v30h30v60h-30v30h30v60h-30v30h30v75h360v-450h-360zm330-45v390h-300v-45h30v-30h-30v-60h30v-30h-30v-60h30v-30h-30v-60h30v-30h-30v-45z"/><path d="m330 105h-210v120h210zm-30 90h-150v-60h150z"/><path d="m465 60c-24.814 0-45 20.187-45 45v304.542l45 67.5 45-67.5v-304.542c0-24.813-20.186-45-45-45zm0 30c8.272 0 15 6.729 15 15v15h-30v-15c0-8.271 6.728-15 15-15zm15 60v30h-30v-30zm-15 272.958-15-22.5v-190.458h30v190.458z"/><path d="m240 255h-30v22.5h-22.5v30h22.5v22.5h30v-22.5h22.5v-30h-22.5z"/><path d="m135 330h30v-75h-45v30h15z"/><path d="m285 285h15v45h30v-75h-45z"/></g></svg>