<svg id="Layer_1" enable-background="new 0 0 510 510" height="512" viewBox="0 0 510 510" width="512" xmlns="http://www.w3.org/2000/svg"><g><path d="m360 240v-240h-360v450h300v60h210v-270zm-330 180v-390h300v210h-30v180zm450 60h-150v-210h150z"/><path d="m360 420h30v30h-30z"/><path d="m420 420h30v30h-30z"/><path d="m360 360h30v30h-30z"/><path d="m420 360h30v30h-30z"/><path d="m360 300h90v30h-90z"/><path d="m60 240h180v30h-180z"/><path d="m60 180h135v30h-135z"/><path d="m60 120h240v30h-240z"/><path d="m60 60h240v30h-240z"/><path d="m120 300h-30v30h-30v30h30v30h30v-30h30v-30h-30z"/><path d="m180 360h60v30h-60z"/><path d="m180 300h60v30h-60z"/></g></svg>