<svg id="Layer_1" enable-background="new 0 0 510 510" height="512" viewBox="0 0 510 510" width="512" xmlns="http://www.w3.org/2000/svg"><g><path d="m270 240v-240h-30v110.438c-2.243-4.685-4.598-9.24-7.073-13.642-25.439-45.223-60.217-70.129-97.927-70.129s-72.488 24.906-97.927 70.13c-23.907 42.502-37.073 98.685-37.073 158.203v15h240v240h30v-110.439c2.243 4.685 4.598 9.239 7.073 13.642 25.438 45.225 60.217 70.131 97.927 70.131s72.488-24.906 97.927-70.131c23.907-42.502 37.073-98.685 37.073-158.203v-15zm-120 0v-15h-30v15h-89.699c1.962-48.76 13.477-93.93 32.92-128.495 16.091-28.605 35.845-46.809 56.779-52.724v16.219h30v-16.219c20.934 5.915 40.689 24.119 56.779 52.724 19.443 34.565 30.958 79.735 32.92 128.495zm296.779 158.496c-16.091 28.605-35.846 46.809-56.779 52.724v-19.554h-30v19.554c-20.934-5.915-40.689-24.118-56.779-52.724-19.444-34.566-30.958-79.736-32.92-128.496h89.699v15h30v-15h89.699c-1.962 48.76-13.476 93.93-32.92 128.496z"/><path d="m100.606 385.606 15.911-15.91 15.91 15.91 21.213-21.212-15.91-15.911 15.91-15.91-21.213-21.213-15.91 15.911-15.911-15.911-21.212 21.213 15.91 15.91-15.91 15.911z"/><path d="m75 420h90v30h-90z"/><path d="m75 480h90v30h-90z"/><path d="m330 150h30v-75h90v-30h-90v-30h-30v30h-30v30h30z"/><path d="m430.606 124.394-21.212 21.212 25.606 25.607v38.787h30v-38.787l25.606-25.607-21.212-21.212-19.394 19.393z"/><path d="m360 375h30v30h-30z"/><path d="m360 315h30v30h-30z"/><path d="m120 165h30v30h-30z"/><path d="m120 105h30v30h-30z"/></g></svg>