<svg id="Layer_1" enable-background="new 0 0 510 510" height="512" viewBox="0 0 510 510" width="512" xmlns="http://www.w3.org/2000/svg"><g><path d="m427.5 0h-345c-45.49 0-82.5 37.01-82.5 82.5v345c0 45.49 37.01 82.5 82.5 82.5h345c45.49 0 82.5-37.01 82.5-82.5v-345c0-45.49-37.01-82.5-82.5-82.5zm52.5 427.5c0 28.948-23.552 52.5-52.5 52.5h-345c-28.948 0-52.5-23.552-52.5-52.5v-345c0-28.948 23.552-52.5 52.5-52.5h345c28.948 0 52.5 23.552 52.5 52.5z"/><path d="m285 180v-22.5c0-37.22-30.28-67.5-67.5-67.5s-67.5 30.28-67.5 67.5v52.5h-45v30h45v150h30v-150h45v-30h-45v-52.5c0-20.678 16.822-37.5 37.5-37.5s37.5 16.822 37.5 37.5v22.5z"/><path d="m379.394 248.394-49.394 49.393-49.394-49.393-21.212 21.212 49.393 49.394-49.393 49.394 21.212 21.212 49.394-49.393 49.394 49.393 21.212-21.212-49.393-49.394 49.393-49.394z"/></g></svg>