<svg id="Layer_1" enable-background="new 0 0 510 510" height="512" viewBox="0 0 510 510" width="512" xmlns="http://www.w3.org/2000/svg"><g><path d="m30 510h135v-510h-135zm105-480v450h-75v-30h30v-30h-30v-30h45v-30h-45v-30h30v-30h-30v-30h45v-30h-45v-30h30v-30h-30v-30h45v-30h-45v-30h30v-30h-30v-30z"/><path d="m480 285h-30c0 18.663-4.9 36.201-13.473 51.404l-61.825-179.304c18.079-10.348 30.298-29.818 30.298-52.1 0-27.906-19.151-51.424-45-58.102v-46.898h-30v46.898c-25.849 6.678-45 30.195-45 58.102 0 22.282 12.219 41.752 30.298 52.1l-61.825 179.305c-8.573-15.204-13.473-32.742-13.473-51.405h-30c0 32.859 11.806 63.01 31.392 86.444l-31.392 91.042v47.514h30v-42.486l25.368-73.573c47.438 34.769 111.843 34.757 159.264 0l25.368 73.573v42.486h30v-47.514l-31.392-91.042c19.586-23.434 31.392-53.585 31.392-86.444zm-135-210c16.542 0 30 13.458 30 30 0 18.604-16.862 32.777-35.225 29.535-14.36-2.578-24.775-15.031-24.775-29.535 0-16.542 13.458-30 30-30zm.691 89.996 25.862 75.004h-53.105l25.862-75.004c.07.001 1.288.001 1.381 0zm-69.947 198.854 32.36-93.85h73.793l32.36 93.85c-39.622 34.843-98.824 34.903-138.513 0z"/></g></svg>