<svg id="Layer_1" enable-background="new 0 0 510 510" height="512" viewBox="0 0 510 510" width="512" xmlns="http://www.w3.org/2000/svg"><g><path d="m480 360v-300h-450v300h-30v15c0 41.355 33.645 75 75 75h360c41.355 0 75-33.645 75-75v-15zm-30-270v210h-390v-210zm-390 240h390v30h-390zm375 90h-360c-19.556 0-36.239-12.539-42.43-30h444.86c-6.191 17.461-22.873 30-42.43 30z"/><path d="m240 245h30v-30h30v-30h-30v-30h-30v30h-30v30h30z"/><path d="m405 240h-45v-30h45v-90h-75v30h45v30h-45v90h75z"/><path d="m180 240h-45v-30h45v-90h-75v30h45v30h-45v90h75z"/></g></svg>