<svg id="Layer_1" enable-background="new 0 0 508.364 508.364" height="512" viewBox="0 0 508.364 508.364" width="512" xmlns="http://www.w3.org/2000/svg"><g><path d="m365.242 257.523 143.122-143.122-114.401-114.401-143.122 143.122-142.406-142.406-106.065 106.066 142.405 142.406-144.774 144.775 114.4 114.401 144.775-144.775 107.028 107.029 132.583 26.516-26.516-132.582zm-199.596-29.89-22.33-22.331 63.64-63.64 22.33 22.331zm-43.543-43.544-21.214-21.213 63.64-63.64 21.214 21.213zm-13.668-140.946 34.881 34.881-63.64 63.64-34.881-34.881zm5.966 422.795-71.975-71.974 25.381-25.381 24.339 24.339 21.213-21.213-24.339-24.339 25.381-25.381 47.636 47.636 21.213-21.213-47.636-47.636 25.381-25.381 24.339 24.339 21.213-21.213-24.339-24.339 25.381-25.381 47.636 47.636 21.213-21.213-47.636-47.636 25.381-25.381 24.339 24.339 21.213-21.213-24.339-24.339 25.381-25.381 47.636 47.636 21.213-21.213-47.636-47.636 25.38-25.38 24.339 24.339 21.213-21.213-24.339-24.339 25.381-25.38 71.975 71.974-121.91 121.909-.343-.343-106.065 106.067.342.342zm266.595-22.956-100.607-100.606 63.64-63.64 100.606 100.606 15.91 79.55z"/></g></svg>