<svg id="Layer_1" enable-background="new 0 0 510.234 510.234" height="512" viewBox="0 0 510.234 510.234" width="512" xmlns="http://www.w3.org/2000/svg"><g><path d="m265.825 265.834 131.887-131.887v23.787h30v-75h-75v30h23.787l-131.878 131.878-244.409-244.612v510.234h509.811zm171.814 214.4h-90.963c2.947-23.271 12.681-45.245 27.94-63.076zm-407.427-407.765 193.196 193.356-94.409 94.409h-98.787zm0 407.765v-90h90v90zm120-98.787 94.4-94.4 108.751 108.842c-20.784 23.534-33.721 53.1-36.878 84.346h-166.273z"/><path d="m165.212 120.234h30v-60h75v-30h-75v-30h-30v30h-30v30h30z"/></g></svg>