<svg id="Layer_1" enable-background="new 0 0 510 510" height="512" viewBox="0 0 510 510" width="512" xmlns="http://www.w3.org/2000/svg"><g><path d="m90 0v510h330v-510zm300 480h-270v-450h270z"/><path d="m360 450c0-11.67 0-202.146 0-210-19.677 0-185.635 0-210 0v210zm-90-30h-30v-30h30zm-30-90h30v30h-30zm90 90h-30c0-11.219 0-80.184 0-90h30zm-30-150h30v30h-30zm-60 0h30v30h-30zm-60 0h30v30h-30zm0 60h30v30h-30zm0 90v-30h30v30z"/><path d="m360 60h-210v90h210zm-30 60h-150v-30h150z"/><path d="m150 180h30v30h-30z"/><path d="m210 180h30v30h-30z"/><path d="m270 180h30v30h-30z"/></g></svg>