<svg id="Layer_1" enable-background="new 0 0 510 510" height="512" viewBox="0 0 510 510" width="512" xmlns="http://www.w3.org/2000/svg"><g><path d="m435.312 74.688c-48.163-48.164-112.199-74.688-180.312-74.688s-132.149 26.524-180.312 74.688c-48.164 48.163-74.688 112.199-74.688 180.312s26.524 132.149 74.688 180.312c48.163 48.164 112.199 74.688 180.312 74.688s132.149-26.524 180.312-74.688c48.164-48.163 74.688-112.199 74.688-180.312s-26.524-132.149-74.688-180.312zm-180.312 405.312c-9.974 0-25.814-18.481-38.716-59.769-6.99-22.369-12.377-48.571-15.984-77.168 36.14 2.58 73.221 2.583 109.399 0-3.607 28.597-8.994 54.799-15.984 77.168-12.902 41.288-28.741 59.769-38.715 59.769zm-57.783-167.217c-1.09-13.9-1.783-28.209-2.066-42.783h119.698c-.284 14.574-.976 28.883-2.066 42.783-37.693 2.956-77.859 2.958-115.566 0zm-2.066-72.783c.284-14.574.976-28.883 2.066-42.783 69.357-5.441 157.298-1.469 223.014 19.067 23.968 7.49 40.236 15.968 49.679 23.716zm-30.001 0h-125.06c9.443-7.748 25.71-16.226 49.679-23.716 22.369-6.99 48.571-12.377 77.168-15.984-.935 13.094-1.531 26.376-1.787 39.7zm0 30c.256 13.324.852 26.606 1.787 39.7-28.597-3.607-54.8-8.994-77.168-15.984-23.969-7.49-40.236-15.968-49.679-23.716zm179.7 0h125.06c-9.443 7.748-25.711 16.226-49.679 23.716-22.369 6.99-48.571 12.377-77.168 15.984.935-13.094 1.531-26.376 1.787-39.7zm129.985-62.97c-46.785-27.729-133.664-42.03-219.835-42.03-18.333 0-36.695.651-54.7 1.937 3.607-28.597 8.994-54.8 15.984-77.168 12.902-41.288 28.742-59.769 38.716-59.769 107.605 0 197.794 75.936 219.835 177.03zm-267.805-171.865c-18.449 31.128-30.951 80-37.253 134.612-54.612 6.302-103.484 18.805-134.612 37.254 18.669-85.632 86.234-153.197 171.865-171.866zm-171.865 267.805c31.128 18.449 80 30.952 134.612 37.254 6.302 54.612 18.805 103.483 37.253 134.612-85.631-18.67-153.196-86.235-171.865-171.866zm267.805 171.865c18.449-31.128 30.951-80 37.253-134.612 54.612-6.302 103.484-18.805 134.612-37.254-18.669 85.632-86.234 153.197-171.865 171.866z"/></g></svg>