<svg id="Layer_1" enable-background="new 0 0 510 510" height="512" viewBox="0 0 510 510" width="512" xmlns="http://www.w3.org/2000/svg"><g><path d="m225 29.865-16.981 2.263c-117.629 15.673-208.019 116.384-208.019 237.872 0 132.64 107.341 240 240 240 121.28 0 222.172-90.201 237.873-208.019l2.263-16.981h-255.136zm-195 240.135c0-99.029 69.818-184.358 165-205.155v228.942l-113.652 113.653c-31.974-36.86-51.348-84.93-51.348-137.44zm415.156 45c-20.798 95.183-106.127 165-205.156 165-52.51 0-100.58-19.374-137.439-51.348l113.652-113.652z"/><path d="m270 0h-15v255h255v-15c0-132.641-107.341-240-240-240zm15 118.935 70.649-70.649c9.573 4.295 18.771 9.28 27.524 14.902l-98.173 98.173zm39.361-81.787-39.361 39.361v-45.979c13.511.959 26.669 3.212 39.361 6.618zm-39.361 166.639 122.429-122.43c7.563 6.561 14.653 13.651 21.213 21.214l-122.428 122.429h-21.214zm161.812-76.96c5.623 8.753 10.608 17.951 14.903 27.524l-70.648 70.649h-42.428zm-13.319 98.173 39.359-39.359c3.405 12.691 5.659 25.849 6.617 39.359z"/></g></svg>