<svg id="Layer_1" enable-background="new 0 0 510 510" height="512" viewBox="0 0 510 510" width="512" xmlns="http://www.w3.org/2000/svg"><g><path d="m510 240h-30.504c-3.235-49.481-22.446-95.859-55.147-133.136l28.758-28.758-21.213-21.213-28.758 28.758c-37.277-32.701-83.655-51.912-133.136-55.147v-30.504h-30v30.504c-112.268 7.341-202.143 97.043-209.496 209.496h-30.504v30h30.504c7.341 112.268 97.043 202.143 209.496 209.496v30.504h30v-30.504c112.267-7.341 202.143-97.043 209.496-209.496h30.504zm-60.571 0h-75.364c-2.74-21.879-11.397-41.943-24.309-58.543l53.261-53.261c26.217 30.56 43.163 69.294 46.412 111.804zm-179.429-73.743c13.655 2.301 26.278 7.682 37.12 15.41l-37.12 37.12zm58.333 36.623c7.728 10.843 13.109 23.465 15.41 37.12h-52.53zm53.471-95.897-53.261 53.261c-16.6-12.912-36.664-21.568-58.543-24.309v-75.364c42.51 3.249 81.244 20.195 111.804 46.412zm-141.804-46.412v179.429h-179.429c7.306-95.591 83.838-172.123 179.429-179.429zm-179.429 209.429h179.429v179.429c-95.591-7.306-172.123-83.838-179.429-179.429zm209.429 179.429v-179.429h179.429c-7.306 95.591-83.838 172.123-179.429 179.429z"/></g></svg>