<svg id="Layer_1" enable-background="new 0 0 510 510" height="512" viewBox="0 0 510 510" width="512" xmlns="http://www.w3.org/2000/svg"><g><path d="m127.5 0c-33.084 0-60 26.916-60 60v370c0 44.112 35.888 80 80 80h295c0-12.406 0-494.717 0-510zm0 30h285v60h-285c-16.542 0-30-13.458-30-30s13.458-30 30-30zm285 450h-265c-27.57 0-50-22.43-50-50v-318.072c8.832 5.123 19.075 8.072 30 8.072h285z"/><path d="m142.5 285v30h105v120h30v-120h105v-30h-105v-120h-30v120z"/><path d="m127.5 195v30h30v30h30v-30h30v-30h-30v-30h-30v30z"/><path d="m307.5 210h75v30h-75z"/><path d="m307.5 345h75v30h-75z"/><path d="m307.5 405h75v30h-75z"/><path d="m193.713 345.754-21.213 21.213-21.213-21.213-21.213 21.213 21.213 21.213-21.213 21.214 21.213 21.212 21.213-21.213 21.213 21.213 21.213-21.212-21.213-21.214 21.213-21.213z"/></g></svg>