<svg id="Layer_1" enable-background="new 0 0 510 510" height="512" viewBox="0 0 510 510" width="512" xmlns="http://www.w3.org/2000/svg"><g><path d="m345 30v-30h-180v30h-90v480h360v-480zm-150 0h120v30h-120zm210 450h-300v-420h60v30h180v-30h60z"/><path d="m210 191.459-20.73-41.459h-54.27v30h35.73l39.27 78.541 39.27-78.541h125.73v-30h-144.27z"/><path d="m314.427 210.377-15.91 15.91-15.911-15.91-21.212 21.213 15.91 15.91-15.91 15.91 21.212 21.213 15.911-15.91 15.91 15.91 21.213-21.213-15.911-15.91 15.911-15.91z"/><path d="m210 330h90v30h-90z"/><path d="m210 390h90v30h-90z"/></g></svg>