<svg id="Layer_1" enable-background="new 0 0 510.213 510.213" height="512" viewBox="0 0 510.213 510.213" width="512" xmlns="http://www.w3.org/2000/svg"><g><path d="m510.213 375.213-105.213-105.213v60.213h-195v-225h60.213l-105.213-105.213-105.213 105.213h60.213v225h-120v90h120v90h90v-90h195v60.213zm-75.213 32.787v-65.574l32.787 32.787zm-270-365.574 32.787 32.787h-65.573zm15 347.787v90h-30v-90h-120v-30h120v-255h30v255h225v30z"/><path d="m321.606 295.82 15.911-15.911 15.91 15.911 21.213-21.213-15.911-15.91 15.911-15.911-21.213-21.212-15.91 15.91-15.911-15.91-21.212 21.212 15.91 15.911-15.91 15.91z"/><path d="m26 225.213h30v-38.787l25.606-25.606-21.212-21.213-19.394 19.393-19.394-19.393-21.212 21.213 25.606 25.606z"/><path d="m390 150.213h75v30h-75z"/><path d="m390 90.213h75v30h-75z"/></g></svg>