<svg id="Layer_1" enable-background="new 0 0 510 510" height="512" viewBox="0 0 510 510" width="512" xmlns="http://www.w3.org/2000/svg"><g><path d="m315 240v-240h-270v270h150v240h270v-270zm-240 0v-210h210v210c-9.472 0-152.592 0-210 0zm360 240h-210v-210h210z"/><path d="m120 180h30v30h-30z"/><path d="m120 120h30v30h-30z"/><path d="m120 60h30v30h-30z"/><path d="m210 180h30v30h-30z"/><path d="m270 315h30v30h-30z"/><path d="m270 405h30v30h-30z"/><path d="m360 405h30v30h-30z"/><path d="m360 315h30v30h-30z"/><path d="m210 120h30v30h-30z"/><path d="m210 60h30v30h-30z"/></g></svg>