<svg id="Layer_1" enable-background="new 0 0 510.011 510.011" height="512" viewBox="0 0 510.011 510.011" width="512" xmlns="http://www.w3.org/2000/svg"><g><path d="m126.003 114.413h48.067l6.901 18.286 28.068-10.592-46.081-122.107-25.491.026-46.48 122.038 28.035 10.678zm24.144-63.392 12.602 33.393h-25.319z"/><path d="m383.9 143.868c25.191 0 45.684-20.493 45.684-45.684 0-14.105-6.429-26.736-16.508-35.123 3.969-6.333 6.271-13.811 6.271-21.82 0-22.734-18.495-41.23-41.229-41.23h-48.112v144.06c10.688-.049 44.696-.203 53.894-.203zm0-30c-4.397 0-14.899.037-23.895.073v-31.417c12.345-.046 7.662-.012 23.895-.023 8.648 0 15.684 7.035 15.684 15.684-.001 8.648-7.037 15.683-15.684 15.683zm-23.895-83.857h18.112c6.192 0 11.229 5.038 11.229 11.23s-5.037 11.229-11.229 11.229c-.805 0-.723-.003-18.112.03z"/><path d="m345.005 180.011c-32.206 0-62.977 9.125-89.672 26.479l-.328-.246-.328.246c-26.695-17.354-57.466-26.479-89.672-26.479-90.981 0-165 74.019-165 165s74.019 165 165 165c32.206 0 62.977-9.125 89.672-26.479l.328.246.328-.246c26.695 17.354 57.466 26.479 89.672 26.479 90.981 0 165-74.019 165-165s-74.018-165-165-165zm-90 265.639c-17.209-15.335-29.939-34.427-37.387-55.64h74.773c-7.447 21.214-20.177 40.305-37.386 55.64zm-44.181-85.639c-1.604-14.704-.889-29.924 2.499-45h83.365c3.204 14.258 4.194 29.454 2.499 45zm13.123-75c7.55-15.229 18.014-29.015 31.059-40.64 13.045 11.625 23.509 25.411 31.059 40.64zm-193.942 60c0-74.44 60.561-135 135-135 23.07 0 45.227 5.74 65.04 16.686-66.786 65.003-66.755 171.656 0 236.629-19.813 10.945-41.97 16.686-65.04 16.686-74.439-.001-135-60.562-135-135.001zm315 135c-23.07 0-45.227-5.74-65.04-16.686 66.786-65.003 66.755-171.656 0-236.629 19.813-10.945 41.97-16.686 65.04-16.686 74.44 0 135 60.561 135 135s-60.56 135.001-135 135.001z"/></g></svg>