<svg id="Layer_1" enable-background="new 0 0 510 510" height="512" viewBox="0 0 510 510" width="512" xmlns="http://www.w3.org/2000/svg"><g><path d="m510 75h-45v-60h-90v60h-240v-60h-90v60h-45v390h150v30h210v-30h150zm-105-30h30v30h-30zm-330 0h30v30h-30zm255 420h-150v-30h150zm150-30h-120v-30h-210v30h-120v-330h450z"/><path d="m130 255h250v30h-250z" transform="matrix(.8 -.6 .6 .8 -111 207)"/><path d="m315 300h75v30h-75z"/><path d="m157.5 247.5h30v-22.5h22.5v-30h-22.5v-22.5h-30v22.5h-22.5v30h22.5z"/></g></svg>