<svg id="Layer_1" enable-background="new 0 0 510 510" height="512" viewBox="0 0 510 510" width="512" xmlns="http://www.w3.org/2000/svg"><g><path d="m480 346.249v-285h-151.51c-6.968-34.192-37.271-60-73.49-60s-66.523 25.808-73.491 60h-151.509v285h-30v30h114.555l-38.863 123.497 28.616 9.006 18.095-57.503h117.597v30h30v-30h117.596l18.096 57.503 28.617-9.006-38.863-123.497h114.555v-30zm-225-315c19.555 0 36.228 12.541 42.42 30h-84.84c6.193-17.459 22.865-30 42.42-30zm-123.156 390 14.161-45h93.995v45zm246.311 0h-108.155v-45h93.994zm-318.155-75v-255h390v255z"/><path d="m270 186.249h-30v30h-30v30h30v30h30v-30h30v-30h-30z"/><path d="m150 226.249h-30v-75h-30v105h60v45h30v-105h-30z"/><path d="m330 241.249h60v30h-60v30h90v-90h-60v-30h60v-30h-90z"/></g></svg>