<svg id="Layer_1" enable-background="new 0 0 510 510" height="512" viewBox="0 0 510 510" width="512" xmlns="http://www.w3.org/2000/svg"><g><path d="m510 150v-105h-424.155l-85.845 51.507v109.986l94.155-56.493h40.845v91.082c0 55.854-13.203 111.783-38.182 161.74l-31.089 62.178h108.541l24.381-48.762c27.051-54.1 41.349-114.669 41.349-175.156v-91.082h30v195c0 66.168 53.831 120 120 120s120-53.832 120-120v-45h-105v45c0 8.272-6.729 15-15 15s-15-6.728-15-15v-195zm-300 91.082c0 55.854-13.203 111.783-38.182 161.74l-16.089 32.178h-41.459l9.381-18.762c27.051-54.1 41.349-114.669 41.349-175.156v-91.082h45zm-124.155-121.082-55.845 33.507v-40.014l64.155-38.493h385.845v45c-13.525 0-371.878 0-394.155 0zm304.155 270c24.813 0 45-20.186 45-45v-15h45v15c0 49.627-40.374 90-90 90s-90-40.373-90-90v-195h45v195c0 24.814 20.187 45 45 45z"/></g></svg>