<svg id="Layer_1" enable-background="new 0 0 509.213 509.213" height="512" viewBox="0 0 509.213 509.213" width="512" xmlns="http://www.w3.org/2000/svg"><g><path d="m456.18 396.18-21.213 21.213 16.82 16.82h-106.787v-120c16.361 0 32.662-1.891 48.448-5.619l-6.896-29.197c-13.529 3.196-27.509 4.816-41.552 4.816-109.488 0-194.853-97.82-177.882-207.711l-29.649-4.578c-2.398 15.529-3.058 31.355-1.928 47.289h-60.541v-61.787l16.82 16.819 21.213-21.213-53.033-53.032-53.033 53.032 21.213 21.213 16.82-16.819v376.787h-45v30h45v45h30v-45h376.787l-16.82 16.82 21.213 21.213 53.033-53.033zm-219.238-111.967c-16.109 0-57.18 0-71.942 0v-71.943c17.742 29.444 42.499 54.201 71.942 71.943zm-161.942-135h60v135h-60zm0 285v-120h60v120zm90 0v-120h60v120zm90 0v-120h60v120z"/><path d="m437.573 287.853 15.91-15.911 15.911 15.911 21.212-21.213-15.91-15.91 15.91-15.911-21.212-21.212-15.911 15.91-15.91-15.91-21.213 21.212 15.911 15.911-15.911 15.91z"/><path d="m214.394 89.213h30v-38.787l25.606-25.607-21.213-21.213-19.393 19.394-19.394-19.394-21.213 21.213 25.607 25.607z"/></g></svg>