<svg id="Layer_1" enable-background="new 0 0 510 510" height="512" viewBox="0 0 510 510" width="512" xmlns="http://www.w3.org/2000/svg"><g><path d="m435.313 74.688c-48.164-48.164-112.2-74.688-180.313-74.688s-132.149 26.524-180.312 74.688-74.688 112.199-74.688 180.312 26.524 132.149 74.688 180.313 112.199 74.687 180.312 74.687 132.149-26.524 180.313-74.688 74.687-112.199 74.687-180.312-26.524-132.149-74.687-180.312zm-180.313 405.312c-124.065 0-225-100.935-225-225s100.935-225 225-225 225 100.935 225 225-100.935 225-225 225z"/><path d="m352.634 172.5c-19.447 0-43.007 12.24-72.025 37.421-10.269 8.91-19.228 17.755-25.608 24.355-6.38-6.601-15.341-15.445-25.609-24.355-29.018-25.181-52.578-37.421-72.024-37.421-45.49 0-82.5 37.01-82.5 82.5s37.01 82.5 82.5 82.5c19.446 0 43.006-12.24 72.024-37.421 10.269-8.91 19.23-17.755 25.609-24.355 6.38 6.601 15.34 15.445 25.608 24.355 29.019 25.181 52.578 37.421 72.025 37.421 45.49 0 82.5-37.01 82.5-82.5s-37.01-82.5-82.5-82.5zm-195.268 135c-28.948 0-52.5-23.552-52.5-52.5s23.552-52.5 52.5-52.5c18.409 0 52.597 28.114 76.051 52.506-23.43 24.389-57.6 52.494-76.051 52.494zm195.268 0c-18.409 0-52.598-28.114-76.052-52.506 23.431-24.39 57.599-52.494 76.052-52.494 28.948 0 52.5 23.552 52.5 52.5s-23.552 52.5-52.5 52.5z"/></g></svg>