<svg id="Layer_1" enable-background="new 0 0 510 510" height="512" viewBox="0 0 510 510" width="512" xmlns="http://www.w3.org/2000/svg"><g><path d="m240 300h30v30h-30z"/><path d="m300 300h30v30h-30z"/><path d="m360 300h30v30h-30z"/><path d="m240 240h30v30h-30z"/><path d="m240 180h30v30h-30z"/><path d="m337.573 249.64 15.91-15.91 15.911 15.91 21.212-21.213-15.91-15.91 15.91-15.911-21.212-21.212-15.911 15.91-15.91-15.91-21.213 21.212 15.91 15.911-15.91 15.91z"/><path d="m184.394 169.394-19.394 19.393-19.394-19.393-21.212 21.212 25.606 25.607v38.787h30v-38.787l25.606-25.607z"/><path d="m449.99 67c-.213-15.325-10.392-36.416-57.037-50.944-33.723-10.504-81.426-16.056-137.953-16.056s-104.231 5.552-137.953 16.056c-46.645 14.528-56.824 35.619-57.037 50.944h-.01v376h.01c.213 15.325 10.392 36.416 57.037 50.944 33.722 10.504 81.426 16.056 137.953 16.056s104.23-5.552 137.953-16.056c46.645-14.528 56.824-35.619 57.037-50.944h.01v-376zm-179.99 83v-15.136c44.279-.8 111.151-5.851 150-27.028v294.328c-42.103-22.953-117.253-27.164-165-27.164-47.765 0-122.903 4.215-165 27.164v-294.328c38.851 21.18 105.726 26.229 150 27.028v15.136zm-15-120c125.895 0 165 27.487 165 37.5s-39.105 37.5-165 37.5-165-27.487-165-37.5 39.104-37.5 165-37.5zm0 450c-125.896 0-165-27.487-165-37.5s39.104-37.5 165-37.5 165 27.487 165 37.5-39.105 37.5-165 37.5z"/></g></svg>