<svg id="Layer_1" enable-background="new 0 0 510 510" height="512" viewBox="0 0 510 510" width="512" xmlns="http://www.w3.org/2000/svg"><g><path d="m150 218.072c-8.832-5.123-19.075-8.072-30-8.072-33.084 0-60 26.916-60 60s26.916 60 60 60c10.925 0 21.168-2.949 30-8.072v8.072h30v-120h-30zm-30 81.928c-16.542 0-30-13.457-30-30 0-16.542 13.458-30 30-30s30 13.458 30 30c0 16.543-13.458 30-30 30z"/><path d="m240 315h30v-30h30v-30h-30v-30h-30v30h-30v30h30z"/><path d="m390 210c-10.925 0-21.168 2.949-30 8.072v-53.072h-30v165h30v-8.072c8.832 5.123 19.075 8.072 30 8.072 33.084 0 60-26.916 60-60s-26.916-60-60-60zm0 90c-16.542 0-30-13.457-30-30 0-16.542 13.458-30 30-30s30 13.458 30 30c0 16.543-13.458 30-30 30z"/><path d="m420 30v-30h-30v30h-45v-30h-30v30h-45v-30h-30v30h-45v-30h-30v30h-45v-30h-30v30h-90v480h510v-480zm60 450h-450v-420h60v30h30v-30h45v30h30v-30h45v30h30v-30h45v30h30v-30h45v30h30v-30h60z"/><path d="m195 420h120v30h-120z"/><path d="m195 360h120v30h-120z"/></g></svg>