<svg id="Layer_1" enable-background="new 0 0 510.002 510.002" height="512" viewBox="0 0 510.002 510.002" width="512" xmlns="http://www.w3.org/2000/svg"><g><path d="m480.001.002v37.5h-30.637c-3.583-21.254-22.105-37.5-44.363-37.5-11.517 0-22.032 4.354-30 11.495-17.111-15.337-42.905-15.322-60 0-7.968-7.142-18.483-11.495-30-11.495-22.258 0-40.78 16.246-44.363 37.5h-76.273c-3.583-21.254-22.105-37.5-44.363-37.5s-40.78 16.246-44.363 37.5h-45.638v-37.5h-30v510h510c0-25.516 0-490.448 0-510h-30zm0 307.5h-30.637c-3.583-21.254-22.105-37.5-44.363-37.5-11.517 0-22.032 4.354-30 11.495-7.968-7.142-18.483-11.495-30-11.495-22.258 0-40.78 16.246-44.363 37.5h-31.273c-3.583-21.254-22.106-37.5-44.363-37.5-11.517 0-22.032 4.354-30 11.495-17.111-15.337-42.905-15.322-60 0-7.968-7.142-18.483-11.495-30-11.495-22.258 0-40.78 16.246-44.363 37.5h-30.638v-105h75.637c3.583 21.254 22.105 37.5 44.363 37.5 11.517 0 22.032-4.354 30-11.495 7.968 7.142 18.483 11.495 30 11.495 22.258 0 40.78-16.246 44.363-37.5h76.273c3.583 21.254 22.106 37.5 44.363 37.5 22.258 0 40.78-16.246 44.363-37.5h60.637v105zm-90 7.5c0-8.271 6.729-15 15-15 8.272 0 15 6.729 15 15v15c0 8.271-6.728 15-15 15-8.271 0-15-6.729-15-15zm-30 15c0 8.271-6.728 15-15 15-8.271 0-15-6.729-15-15v-15c0-8.271 6.729-15 15-15 8.272 0 15 6.729 15 15zm-150-15c0-8.271 6.729-15 15-15s15 6.729 15 15v15c0 8.271-6.729 15-15 15s-15-6.729-15-15zm-60 0c0-8.271 6.729-15 15-15s15 6.729 15 15v15c0 8.271-6.729 15-15 15s-15-6.729-15-15zm-30 15c0 8.271-6.729 15-15 15s-15-6.729-15-15v-15c0-8.271 6.729-15 15-15s15 6.729 15 15zm45-135c0 8.271-6.729 15-15 15s-15-6.729-15-15v-15c0-8.271 6.729-15 15-15s15 6.729 15 15zm30-15c0-8.271 6.729-15 15-15s15 6.729 15 15v15c0 8.271-6.729 15-15 15s-15-6.729-15-15zm165 15v-15c0-8.271 6.729-15 15-15 8.272 0 15 6.729 15 15v15c0 8.271-6.728 15-15 15-8.271 0-15-6.729-15-15zm45-165c8.272 0 15 6.729 15 15v15c0 8.271-6.728 15-15 15-8.271 0-15-6.729-15-15v-15c0-8.271 6.729-15 15-15zm-60 0c8.272 0 15 6.729 15 15v15c0 8.271-6.728 15-15 15-8.271 0-15-6.729-15-15v-15c0-8.271 6.729-15 15-15zm-75 15c0-8.271 6.729-15 15-15 8.272 0 15 6.729 15 15v15c0 8.271-6.728 15-15 15-8.271 0-15-6.729-15-15zm-165 0c0-8.271 6.729-15 15-15s15 6.729 15 15v15c0 8.271-6.729 15-15 15s-15-6.729-15-15zm-29.363 22.5c3.583 21.254 22.105 37.5 44.363 37.5s40.78-16.246 44.363-37.5h76.273c3.583 21.254 22.106 37.5 44.363 37.5 11.517 0 22.032-4.354 30-11.495 17.111 15.337 42.905 15.322 60 0 7.968 7.142 18.483 11.495 30 11.495 22.258 0 40.78-16.246 44.363-37.5h30.637v105h-60.637c-3.583-21.254-22.105-37.5-44.363-37.5s-40.78 16.246-44.363 37.5h-76.273c-3.583-21.254-22.105-37.5-44.363-37.5-11.517 0-22.032 4.354-30 11.495-7.968-7.142-18.483-11.495-30-11.495-22.258 0-40.78 16.246-44.363 37.5h-75.637v-105zm404.363 412.5h-450v-45h450zm-450-75v-67.5h30.637c3.583 21.254 22.105 37.5 44.363 37.5 11.517 0 22.032-4.353 30-11.495 17.111 15.337 42.905 15.322 60 0 7.968 7.142 18.483 11.495 30 11.495 22.258 0 40.78-16.246 44.363-37.5h31.273c3.583 21.254 22.106 37.5 44.363 37.5 11.517 0 22.032-4.353 30-11.495 7.968 7.142 18.483 11.495 30 11.495 22.258 0 40.78-16.246 44.363-37.5h30.637v67.5z"/></g></svg>