<svg id="Layer_1" enable-background="new 0 0 510.211 510.211" height="512" viewBox="0 0 510.211 510.211" width="512" xmlns="http://www.w3.org/2000/svg"><g><path d="m393.623 402.002c16.793-30.172 26.377-64.881 26.377-101.791 0-115.794-94.206-210-210-210-36.91 0-71.619 9.584-101.791 26.377l-108.209-116.588v510.211h510.211zm-363.623-325.58 52.761 56.846c-21.072 16.1-39.021 36.085-52.761 58.887zm0 403.789v-71.943c17.742 29.445 42.499 54.201 71.943 71.943zm0-180c0-99.252 80.748-180 180-180s180 80.748 180 180-80.748 180-180 180-180-80.748-180-180zm346.943 127.239 56.846 52.761h-115.732c22.801-13.739 42.787-31.69 58.886-52.761z"/><path d="m345 240.211h-176.712l-23.006 92.023-16.012-32.023h-54.27v30h35.729l43.989 87.977 36.994-147.977h153.288z"/><path d="m274.394 296.571-15.911 15.91-15.91-15.91-21.213 21.213 15.91 15.91-15.91 15.91 21.213 21.213 15.91-15.91 15.911 15.91 21.212-21.213-15.91-15.91 15.91-15.91z"/></g></svg>