<svg id="Layer_1" enable-background="new 0 0 509.239 509.239" height="512" viewBox="0 0 509.239 509.239" width="512" xmlns="http://www.w3.org/2000/svg"><g><path d="m239.62 120h30v30h-30z"/><path d="m449.62 285c-19.555 0-36.228 12.542-42.42 30h-39.175l-42.719-154.962c15.388-43.313-11.618-89.548-55.686-98.529v-61.509h-30v61.509c-44.144 8.997-71.045 55.299-55.686 98.529l-42.719 154.962h-39.175c-6.192-17.458-22.865-30-42.42-30-24.813 0-45 20.187-45 45s20.187 45 45 45c19.555 0 36.228-12.542 42.42-30h31.248c-9.386 47.071.853 101.834 27.026 138.686l18.15 25.553 25.192-89.239h101.928l25.191 89.239 18.15-25.553c26.174-36.852 36.412-91.615 27.026-138.686h31.249c6.192 17.458 22.865 30 42.42 30 24.813 0 45-20.187 45-45s-20.187-45-45-45zm-173.071-78.278c9.848-3.017 18.832-8.016 26.504-14.522l33.852 122.8h-29.79zm-.606 108.278h-42.646l21.323-75.536zm-21.323-225c24.813 0 45 20.187 45 45s-20.187 45-45 45-45-20.187-45-45 20.186-45 45-45zm-48.434 102.199c7.672 6.506 16.656 11.505 26.504 14.522l-30.565 108.279h-29.79zm-146.566 152.801c-8.271 0-15-6.729-15-15s6.729-15 15-15 15 6.729 15 15-6.729 15-15 15zm108.949 88.867c-9.518-27.979-11.494-60.791-4.567-88.867h29.654zm43.556-43.867 12.703-45h59.584l12.703 45zm128.545 43.867-25.086-88.867h29.654c6.927 28.077 4.95 60.888-4.568 88.867zm108.95-88.867c-8.272 0-15-6.729-15-15s6.728-15 15-15c8.271 0 15 6.729 15 15s-6.729 15-15 15z"/></g></svg>