<svg id="Layer_1" enable-background="new 0 0 510.306 510.306" height="512" viewBox="0 0 510.306 510.306" width="512" xmlns="http://www.w3.org/2000/svg"><g><path d="m105.153 195.138h30v150h-30z"/><path d="m255.153 0-223.142 127.51v255.287l223.142 127.509 223.142-127.509v-255.287zm-56.18 443.65c34.641-16.59 75.739-16.215 110.149 1.263l-53.969 30.839zm249.321-78.263-109.19 62.394c-52.236-35.207-119.687-34.408-170.456-1.459l-106.637-60.935v-220.468l193.142-110.366 193.142 110.367v220.467z"/><path d="m165.153 225.138h45v29.468h-45v90.532h75v-30h-45v-30.532h45v-89.468h-75z"/><path d="m390.153 165.138h30v30h-30z"/><path d="m360.153 195.138h-90.133v150h90.133zm-30 120h-30.133v-90h30.133z"/></g></svg>