<svg id="Layer_1" enable-background="new 0 0 510 510" height="512" viewBox="0 0 510 510" width="512" xmlns="http://www.w3.org/2000/svg"><g><path d="m345 180v-60h45v-120h-261.213l-68.787 68.787v51.213h150v60h-150v51.213l68.787 68.787h81.213v210h135v-210h45v-30h60v-90zm-255-90v-8.787l51.213-51.213h38.787v30h30v-30h30v30h30v-30h30v30h30v-30h30v60c-12.996 0-261.828 0-270 0zm150 30h75v60h-75zm75 225h-30v30h30v30h-30v30h30v45h-75v-180h75zm105-105h-60v30c-10.492 0-19.508 0-30 0v-30h-30v30h-30v-30h-30v30h-30v-30h-30v30h-38.787l-51.213-51.213v-8.787h330z"/></g></svg>