<svg id="Layer_1" enable-background="new 0 0 510 510" height="512" viewBox="0 0 510 510" width="512" xmlns="http://www.w3.org/2000/svg"><g><path d="m115.606 260.532 26.453-26.451 26.451 26.451 21.213-21.213-26.452-26.451 26.452-26.452-21.213-21.213-26.451 26.452-26.453-26.452-21.212 21.213 26.452 26.452-26.452 26.451z"/><path d="m240 268.455h30v-58.639l32.665-32.665-21.213-21.212-26.452 26.451-26.451-26.451-21.213 21.212 32.664 32.665z"/><path d="m330.913 234.437v30.489h85.13v-30h-45.982l42.454-49.363v-24.753h-85.131v30h41.05z"/><path d="m510 0h-510v90h30v285h210v32.195c-21.66 6.471-37.5 26.568-37.5 50.305 0 28.949 23.552 52.5 52.5 52.5s52.5-23.551 52.5-52.5c0-23.737-15.84-43.834-37.5-50.305v-32.195h210v-285h30zm-232.5 457.5c0 12.407-10.094 22.5-22.5 22.5s-22.5-10.093-22.5-22.5 10.094-22.5 22.5-22.5 22.5 10.093 22.5 22.5zm172.5-112.5h-390v-255h390zm30-285h-450v-30h450z"/></g></svg>